Patient4_TMGait_0pt5_02_left_17_EMG.mot
version=1
nRows=27
nColumns=33
inDegrees=no
endheader
time	1LAddLong	2LGlutMax	3LGlutMed	4LIliopsoas	5LSemiMemb	6LBicFemLong	7LRecFem	8LVastMed	9LVastLat	10LGasMed	11LTibAnt	12lTibPost	13LPeroneusLong	14LSol	15LExtDigLong	16LFlexDigLong	17RAddLong	18RGlutMax	19RGlutMed	20RIliopsoas	21RSemiMemb	22RBicFemLong	23RRecFem	24RVastMed	25RVastLat	26RGasMed	27RTibAnt	28RTibPost	29RPeroneusLong	30RSol	31RExtDigLong	32RFlexDigLong
21.96	-0.00885	0.31448	-0.029144	-0.001526	-0.025177	0.15503	0.11169	0.028992	-0.17273	0.26032	0.024872	0.22095	-0.24277	-0.85709	-0.032043	-0.31509	0.11978	0.42816	0.042114	-0.045166	-0.074615	0.6871	0.19287	0.25284	0.071716	-0.008545	0.22079	-0.01358	-0.067596	0.004578	-0.000305	-0.035858
21.961	-0.019531	0.31067	-0.12054	0.00412	-0.043945	0.25955	0.077057	0.037689	-0.13473	0.45685	0.022888	-0.19348	-0.3331	-0.63522	-0.02594	-0.5545	0.12192	0.3804	-0.019226	-0.095673	-0.063934	0.7988	0.18387	0.28091	0.06134	0	0.62882	-0.011139	-0.17166	-0.016327	-0.00061	-0.035858
21.962	-0.007172	0.30945	0.026093	-0.001678	-0.072937	0.26703	0.014038	0.030212	-0.059204	0.53085	0.019073	0.11581	-0.23148	-0.15396	0.02533	0.62454	0.097351	0.39414	-0.11658	-0.06958	0.062561	0.6041	0.16571	0.30807	0.070801	0.005035	0.71457	-0.011902	-0.020599	-0.087128	-0.001831	-0.032349
21.963	0.00824	0.30411	0.071716	0.015411	-0.049438	0.22766	0.019379	0.02121	0.032501	0.38406	0.013275	0.40024	-0.037842	0.38223	0.050201	0.07309	0.10696	0.41351	-0.18997	-0.037842	0.19852	0.44784	0.12955	0.35004	0.088348	0.01297	-0.3949	-0.021057	0.093842	-0.29663	0.000916	-0.033112
21.964	0.00473	0.22964	0.032959	-0.011139	-0.055389	0.19119	0.051575	0.013733	-0.08728	0.031281	0.002289	-0.15106	0.095367	0.29739	0.028381	-0.13794	0.12878	0.41367	-0.17334	0.009918	0.26566	0.4216	0.093231	0.42114	0.0914	0.010834	-1.0211	-0.014954	0.023651	-0.32638	-0.00824	-0.033569
21.965	0.016632	0.21469	0.007019	-0.0177	-0.055542	-0.023956	0.097656	0.016632	-0.21057	-0.11215	0.006714	0.1918	0.37262	0.15823	0.003052	0.032501	0.15625	0.39246	-0.16998	0.080719	0.24872	0.42709	0.099335	0.31693	0.07782	0.009918	-1.0634	-0.012817	0.20432	-0.11597	-0.002136	-0.033875
21.966	0.013275	0.19501	-0.019989	-0.005188	-0.03418	-0.027313	0.10742	0.015564	-0.23499	0.075989	0.003204	0.24948	0.39124	0.23239	-0.030975	0.18066	0.13245	0.4126	-0.14358	0.083313	0.20004	0.35599	0.1326	0.35309	0.071259	0.003662	-0.78369	-0.014191	0.2356	0.051727	-0.000305	-0.034332
21.967	0.018768	0.15701	-0.040131	-0.012054	0.026703	-0.08728	0.11078	0.014801	-0.18372	-0.29419	0.003357	-0.20584	0.17853	0.91034	-0.018768	0.22125	0.10712	0.39764	-0.16708	0.042114	0.1149	0.036469	0.13657	0.21759	0.060883	0.005035	-0.57922	-0.010529	0.13641	0.081787	-0.00351	-0.031738
21.968	0.019226	0.15854	0.032043	-0.030975	0.059814	-0.3305	0.019684	0.007477	-0.14542	-0.18402	0.011749	-0.18509	0.092773	0.63538	0.012817	0.002289	0.018616	0.37689	-0.19363	-0.028076	0.1178	-0.050201	0.20142	0.12436	0.050049	0.006714	-0.58609	-0.010376	0.18723	0.053711	-0.00885	-0.026398
21.969	0.018921	0.1918	0.10788	-0.005188	0.050659	-0.20737	0.020905	0.004272	-0.1239	0.3006	0.012512	-0.21912	-0.026398	0.79895	0.045776	0.15274	-0.059967	0.39673	-0.15793	-0.035095	0.18143	-0.00351	0.21194	0.028229	0.040436	0.010223	-0.47455	-0.008698	0.18097	0.10895	-0.001221	-0.027161
21.97	0.015564	0.22934	0.067749	0.012054	0.014343	-0.055542	0.037079	0.004883	-0.084076	0.43427	0.01236	-0.23331	-0.007019	0.80139	0.062866	0.24109	-0.081482	0.39368	-0.12497	-0.013733	0.10147	0.041809	0.24017	-0.013275	0.026398	0.006714	0.14984	-0.005493	0.013275	0.23407	0.000458	-0.033875
21.971	0.006714	0.19806	0.015259	0.001373	0.004883	-0.022888	0.053253	0.012512	-0.059662	0.72281	-0.007629	-0.022125	0.037994	0.60486	0.031586	-0.21423	-0.11536	0.3894	-0.15839	0.049286	0.002899	0.13962	0.21912	-0.057678	0.015259	0.004883	0.72281	-0.005493	0.069733	0.2095	-0.003967	-0.035095
21.972	0.008087	0.08194	-0.033569	0.017853	0.011292	-0.013885	0.050354	0.009003	-0.054474	0.66132	-0.019226	0.72067	0.052795	0.54718	0.010376	-0.33295	-0.13214	0.35599	-0.16052	0.096283	-0.04715	0.29877	0.25803	-0.034027	0.016632	0.006714	0.61768	-0.001526	0.061951	0.15121	-0.000763	-0.02594
21.973	0.003357	0.031433	-0.004425	-0.002899	-0.013275	0.037842	0.032349	0.013275	-0.062408	0.32318	-0.009918	-0.55267	0.097961	-0.75867	-0.031586	-0.11597	-0.17014	0.30197	-0.20844	0.12482	-0.018616	0.32257	0.27405	-0.029602	0.035248	0.001831	0.42786	-0.000153	-0.071716	0.14832	-0.002899	-0.026245
21.974	-0.002594	-0.016785	0.067444	-0.015411	-0.073242	0.15457	0.040283	0.010681	-0.055237	0.36865	-0.011597	-0.2388	0.19638	-1.5746	-0.059814	-0.057526	-0.1796	0.37048	-0.18112	0.065308	-0.057983	0.25528	0.26535	-0.001831	0.018463	-0.000916	0.39002	-0.000916	-0.12344	0.17639	0.002289	-0.024414
21.975	-0.001373	-0.05127	0.058289	0.001984	-0.13977	0.15579	0.020905	0.014648	-0.035248	-0.11429	-0.001526	0.1561	0.18219	-1.3144	-0.081177	-0.061951	-0.12421	0.37125	-0.18707	0.076294	-0.089569	0.18723	0.21454	-0.058441	0.014954	-0.002136	0.33707	0.001984	-0.12177	0.15198	-0.002899	-0.027618
21.976	0.010376	-0.099182	0.003052	-0.002594	-0.12756	0.058746	0.021667	0.009003	-0.01358	-0.76187	0.015717	0.1564	0.11841	-1.0597	-0.080872	-0.046387	-0.12116	0.33356	-0.16525	0.064087	-0.088196	0.1358	0.17441	-0.042419	0.018005	-0.002747	-0.57388	-0.001068	-0.054169	0.12329	-0.001373	-0.019531
21.977	0.00885	-0.16571	-0.073395	0.000763	-0.03891	0.045013	0.025024	0.005341	-0.016022	-0.95306	0.010834	-0.008545	0.00885	-0.80017	-0.063477	-0.008545	-0.041199	0.3125	-0.15259	0.070496	-0.085754	0.10727	0.12833	-0.051422	0.014191	-0.003204	-0.75409	0.002289	-0.040894	0.085297	-0.002747	-0.027466
21.978	0.018311	-0.18494	-0.074615	-0.001221	0.063019	0.063934	0.05661	0.006104	0.000458	-0.89111	0.027618	-0.11795	-0.037537	-0.26916	-0.04425	-0.036163	0.076141	0.3093	-0.16174	-0.011444	-0.082703	-0.027313	0.14999	-0.005341	0.003662	-0.000458	-0.50736	0.000458	-0.057983	0.024261	-0.001526	-0.01709
21.979	0.006866	-0.18219	-0.0383	-0.016785	0.10803	0.043488	0.040436	0.003204	0.02594	-0.81528	0.026398	-0.11536	-0.004425	0.070038	-0.029755	-0.036163	0.13519	0.3067	-0.18249	-0.2124	-0.08606	-0.060883	0.10056	-0.008545	0.023041	-0.00061	-0.18234	0.005951	-0.10651	-0.00824	-0.003815	-0.036011
21.98	0.00885	-0.15427	-0.014801	0.005646	0.062714	0.14771	0.009766	-0.002747	0.027008	-0.77972	0.026703	-0.12512	-0.075531	0.1297	0.001831	-0.1265	0.1387	0.3418	-0.1619	-0.19409	-0.059662	-0.09491	0.069885	0.003967	0.005493	0.001068	0.17029	0.005341	-0.086975	-0.02594	-0.002594	-0.029602
21.981	0.005035	-0.13977	-0.012817	0.019226	0.027924	-0.16754	-0.021057	-0.009613	0.052032	-0.56198	0.022583	-0.10681	-0.089264	0.33646	0.002899	-0.080261	0.14267	0.27908	-0.12894	0.031738	-0.055389	-0.16281	0.090332	-0.007324	-0.000458	0.004883	0.51544	0.005646	0.013885	-0.080109	-0.000305	-0.030823
21.982	0.002747	-0.13672	-0.02182	0.046234	0.011444	-0.25436	-0.077209	-0.000458	0.050659	0.021667	0.00824	-0.081329	-0.18173	0.69138	0.02243	0.084839	0.13565	0.2858	-0.12085	0.21179	-0.14648	-0.16357	0.1152	0.021057	-0.020142	0.008087	0.32059	0.001221	0.099487	-0.090942	-0.003052	-0.028229
21.983	0.018616	-0.12848	-0.018005	0.028229	-0.002594	-0.095367	-0.098267	0.006866	0.058136	0.2153	0.014801	-0.059357	-0.17242	0.43381	0.058441	-0.35431	0.082245	0.29343	-0.066833	0.29007	-0.16266	-0.016632	0.032501	0.084991	0.006561	0.000916	0.28946	0.003815	0.00061	-0.029602	-0.000916	-0.039215
21.984	0.010071	-0.081329	0.052795	0.016174	-0.064392	-0.031738	-0.024109	-0.009918	0.11108	0.086365	0.003357	-0.057068	-0.040741	0.14404	0.06073	0.271	0.063019	0.34592	-0.015717	0.26977	-0.13321	0.18021	0.043182	0.12894	0.005035	-0.004272	0.39002	0.003357	-0.1004	-0.006866	-0.000305	-0.035095
21.985	-0.001678	-0.10239	0.06546	0.007324	-0.10468	-0.085754	0.037537	-0.000458	0.15411	0.19226	0.002899	-0.057373	0.064545	0.005035	-0.000458	-0.12695	0.029755	0.25467	-0.007782	0.14252	-0.058289	0.27313	0.085754	0.16983	-0.010223	-0.010071	0.38422	-0.000153	-0.12024	-0.003052	-0.002289	-0.039825
21.986	0.002899	-0.14572	0.025177	0.001373	-0.14816	-0.090637	0.031738	-0.00351	0.11704	0.47012	0.005646	-0.066986	0.094147	0.12405	-0.021667	0.069427	0.003967	0.1918	-0.014343	0.005493	-0.033569	0.26535	0.11063	0.11978	-0.03418	-0.003662	0.31235	0.006714	-0.11215	-0.030823	-0.002441	-0.037537
